<svg xmlns="http://www.w3.org/2000/svg" width="24" height="24" viewBox="0 0 24 24" fill="none">
  <path d="M17.5782 6.84347C17.5738 6.8347 17.5664 6.82783 17.5574 6.82408C16.5177 6.33959 15.4205 5.99411 14.2932 5.79629C14.283 5.79435 14.2724 5.79575 14.263 5.80027C14.2536 5.8048 14.2458 5.81223 14.2408 5.82149C14.0914 6.0969 13.9558 6.37979 13.8344 6.66908C12.6193 6.48175 11.3834 6.48175 10.1683 6.66908C10.0461 6.37905 9.90832 6.0961 9.75548 5.82149C9.75024 5.81243 9.74243 5.80517 9.73307 5.80068C9.72371 5.79618 9.71324 5.79465 9.70301 5.79629C8.57566 5.9937 7.47838 6.3392 6.43879 6.82411C6.42989 6.82794 6.42238 6.83448 6.4173 6.84283C4.33833 9.99602 3.76882 13.0717 4.0482 16.1092C4.04899 16.1167 4.05124 16.1239 4.05482 16.1304C4.05841 16.137 4.06325 16.1427 4.06907 16.1473C5.27963 17.0577 6.63367 17.7525 8.07338 18.2023C8.08352 18.2054 8.09435 18.2052 8.10441 18.2019C8.11447 18.1985 8.12327 18.1921 8.12965 18.1836C8.43887 17.7562 8.71286 17.3037 8.94884 16.8307C8.95208 16.8242 8.95393 16.8171 8.95427 16.8098C8.95461 16.8025 8.95343 16.7953 8.9508 16.7885C8.94817 16.7817 8.94417 16.7756 8.93904 16.7705C8.93391 16.7654 8.92778 16.7615 8.92105 16.759C8.48898 16.5911 8.07069 16.3887 7.6701 16.1537C7.66283 16.1494 7.65671 16.1433 7.65231 16.1359C7.6479 16.1286 7.64533 16.1203 7.64484 16.1118C7.64434 16.1032 7.64592 16.0947 7.64945 16.0869C7.65297 16.0791 7.65834 16.0723 7.66506 16.0671C7.74935 16.0032 7.83218 15.9372 7.91348 15.8694C7.92061 15.8635 7.92924 15.8596 7.9384 15.8584C7.94755 15.8571 7.95687 15.8585 7.9653 15.8623C10.5897 17.0788 13.431 17.0788 16.0244 15.8623C16.0328 15.8583 16.0423 15.8567 16.0515 15.8578C16.0608 15.859 16.0696 15.8628 16.0769 15.8688C16.1583 15.937 16.2413 16.0031 16.3259 16.0671C16.3327 16.0722 16.3381 16.079 16.3417 16.0867C16.3453 16.0945 16.3469 16.103 16.3465 16.1116C16.346 16.1202 16.3435 16.1285 16.3392 16.1358C16.3348 16.1432 16.3287 16.1493 16.3215 16.1537C15.9218 16.3907 15.5032 16.5929 15.07 16.7584C15.0632 16.761 15.0571 16.765 15.052 16.7701C15.0469 16.7753 15.043 16.7815 15.0404 16.7883C15.0378 16.7952 15.0367 16.8025 15.0371 16.8098C15.0375 16.8171 15.0394 16.8242 15.0427 16.8307C15.2826 17.3011 15.5562 17.753 15.8612 18.1828C15.8674 18.1916 15.8762 18.1982 15.8863 18.2017C15.8964 18.2052 15.9073 18.2054 15.9175 18.2022C17.3598 17.754 18.7162 17.059 19.9283 16.1473C19.9342 16.143 19.9391 16.1373 19.9427 16.1309C19.9463 16.1244 19.9485 16.1173 19.9492 16.1099C20.2836 12.5981 19.3892 9.54768 17.5782 6.84347ZM9.34078 14.2597C8.55063 14.2597 7.89958 13.5232 7.89958 12.6188C7.89958 11.7144 8.538 10.9779 9.34078 10.9779C10.1498 10.9779 10.7946 11.7208 10.7819 12.6188C10.7819 13.5232 10.1435 14.2597 9.34078 14.2597ZM14.6693 14.2597C13.8792 14.2597 13.2281 13.5232 13.2281 12.6188C13.2281 11.7144 13.8666 10.9779 14.6693 10.9779C15.4784 10.9779 16.1231 11.7208 16.1105 12.6188C16.1105 13.5232 15.4784 14.2597 14.6693 14.2597Z" fill="white"/>
</svg>