<svg xmlns="http://www.w3.org/2000/svg" width="24" height="24" viewBox="0 0 24 24" fill="none">
  <path d="M11.9999 4.36365C12.7009 4.36365 13.377 4.45366 14.0283 4.6337C14.6796 4.81373 15.2861 5.07377 15.8479 5.41384C16.4097 5.7539 16.9243 6.15397 17.3916 6.61405C17.8589 7.07413 18.2591 7.59172 18.5922 8.16683C18.9253 8.74193 19.1814 9.35454 19.3603 10.0047C19.5393 10.6548 19.6313 11.3349 19.6363 12.045C19.6363 12.6751 19.5642 13.2852 19.42 13.8753C19.2758 14.4655 19.067 15.0281 18.7936 15.5631C18.5201 16.0982 18.192 16.5883 17.8092 17.0334C17.4264 17.4785 16.9939 17.8811 16.5116 18.2411C16.0294 18.6012 15.5123 18.8962 14.9605 19.1263C14.4086 19.3563 13.8195 19.5264 13.1931 19.6364V14.2654H14.9754L15.311 12.045H13.1931V10.6048C13.1931 10.3297 13.2378 10.1122 13.3273 9.95215C13.4168 9.79212 13.5361 9.6721 13.6853 9.59208C13.8344 9.51207 14.0034 9.45956 14.1924 9.43455C14.3813 9.40955 14.5777 9.39705 14.7815 9.39705H15.0947C15.1991 9.39705 15.301 9.39955 15.4005 9.40455V7.51421C15.122 7.4642 14.8387 7.42669 14.5503 7.40169C14.262 7.37669 13.9761 7.36418 13.6927 7.36418C13.2304 7.36418 12.8202 7.4342 12.4622 7.57422C12.1043 7.71425 11.8035 7.91428 11.5599 8.17433C11.3163 8.43437 11.1299 8.74693 11.0006 9.112C10.8713 9.47706 10.8067 9.88963 10.8067 10.3497V12.045H8.86779V14.2654H10.8067V19.6364C10.1853 19.5414 9.59613 19.3738 9.03931 19.1338C8.48249 18.8937 7.96544 18.5987 7.48817 18.2486C7.0109 17.8986 6.58086 17.496 6.19804 17.0409C5.81523 16.5858 5.48711 16.0932 5.21367 15.5631C4.94023 15.0331 4.73142 14.473 4.58725 13.8828C4.44307 13.2927 4.3685 12.6801 4.36353 12.045C4.36353 11.3399 4.45301 10.6598 4.63199 10.0047C4.81097 9.34954 5.06949 8.73943 5.40756 8.17433C5.74563 7.60923 6.14336 7.09163 6.60074 6.62155C7.05813 6.15147 7.57269 5.74889 8.14442 5.41384C8.71615 5.07878 9.32517 4.82123 9.97148 4.6412C10.6178 4.46116 11.2939 4.36865 11.9999 4.36365Z" fill="white"/>
</svg>