<svg xmlns="http://www.w3.org/2000/svg" width="24" height="24" viewBox="0 0 24 24" fill="none">
  <path d="M14 2H6C5.47005 2.00158 4.96227 2.2128 4.58753 2.58753C4.2128 2.96227 4.00158 3.47005 4 4V20C4.00158 20.5299 4.2128 21.0377 4.58753 21.4125C4.96227 21.7872 5.47005 21.9984 6 22H18C18.5299 21.9984 19.0377 21.7872 19.4125 21.4125C19.7872 21.0377 19.9984 20.5299 20 20V8L14 2ZM18 20H6V4H13V9H18V20Z" fill="#5B8BAB"/>
  <path d="M8 12H15" stroke="#5B8BAB" stroke-width="2"/>
  <path d="M8 16.5H16" stroke="#5B8BAB" stroke-width="2"/>
</svg>