<svg xmlns="http://www.w3.org/2000/svg" width="24" height="24" viewBox="0 0 24 24" fill="none">
  <path d="M6.45239 8.55561C6.4613 8.46708 6.44936 8.37769 6.41754 8.29459C6.38571 8.21149 6.33488 8.137 6.26911 8.07707L4.91057 6.42834V6.18179H9.1273L12.3869 13.3854L15.2524 6.18179H19.2727V6.42834L18.1113 7.54907C18.0621 7.58706 18.0241 7.63772 18.0014 7.69561C17.9788 7.75351 17.9722 7.81648 17.9826 7.87779V16.1207C17.9722 16.182 17.9788 16.245 18.0014 16.3029C18.0241 16.3608 18.0621 16.4114 18.1113 16.4494L19.2458 17.5709V17.8182H13.5411V17.5716L14.7164 16.4225C14.832 16.3062 14.832 16.272 14.832 16.0945V9.43125L11.5651 17.7905H11.1244L7.32075 9.43125V15.0342C7.28948 15.2691 7.36729 15.5069 7.53166 15.6771L9.05966 17.5447V17.7905H4.72729V17.5447L6.25457 15.6771C6.33538 15.5927 6.39535 15.4907 6.4297 15.3791C6.46404 15.2674 6.47181 15.1493 6.45239 15.0342V8.55561Z" fill="white"/>
</svg>