<svg xmlns="http://www.w3.org/2000/svg" width="24" height="24" viewBox="0 0 24 24" fill="none">
  <path fill-rule="evenodd" clip-rule="evenodd" d="M18.2925 9.38456C18.2925 9.25363 18.2925 9.12001 18.2837 8.99183C18.9169 8.56364 19.4684 8.02636 19.909 7.42091C19.3254 7.6582 18.6951 7.82727 18.0415 7.89273C18.7155 7.51909 19.2233 6.92728 19.4655 6.22638C18.841 6.57 18.1407 6.82637 17.4083 6.95454C16.816 6.36546 15.9756 6 15.0419 6C13.0635 6 11.4178 7.66638 11.8759 9.72545C9.18845 9.59728 6.78993 8.39727 5.19378 6.55909C4.91074 7.00637 4.75321 7.52182 4.75321 8.08637C4.75321 9.09819 5.29591 10.0446 6.19756 10.6064C5.66942 10.5873 5.16461 10.4482 4.73565 10.2218V10.26C4.73565 11.7327 5.84739 12.9518 7.32975 13.2327C6.81616 13.3554 6.36681 13.3554 5.86784 13.2873C6.27635 14.4873 7.47272 15.36 8.89667 15.3873C7.78493 16.2 6.39015 16.68 4.87284 16.68C4.60435 16.68 4.35342 16.6691 4.09082 16.6418C5.52645 17.5009 7.23051 18 9.06882 18C15.0302 18 18.2925 13.3882 18.2925 9.38456Z" fill="white"/>
</svg>