<svg width="194" height="210" viewBox="0 0 194 210" fill="none" xmlns="http://www.w3.org/2000/svg">
<rect x="0.5" y="0.5" width="193" height="209" rx="15.5" fill="#101925"/>
<path fill-rule="evenodd" clip-rule="evenodd" d="M76.52 72.6001C73.7586 72.6001 71.52 74.8387 71.52 77.6001V115.44C71.52 118.202 73.7586 120.44 76.52 120.44H131C133.761 120.44 136 118.202 136 115.44V77.6001C136 74.8387 133.761 72.6001 131 72.6001H76.52ZM130.8 77.8001H122.48V86.1201H130.8V77.8001ZM92.32 77.8001H115.2V115.24H92.32V77.8001ZM85.04 77.8001H76.72V86.1201H85.04V77.8001ZM122.48 92.3601H130.8V100.68H122.48V92.3601ZM85.04 92.3601H76.72V100.68H85.04V92.3601ZM122.48 106.92H130.8V115.24H122.48V106.92ZM85.04 106.92H76.72V115.24H85.04V106.92Z" fill="#314157"/>
<rect x="56.5" y="85.5" width="65" height="51" rx="6.5" fill="#8B9DB6" stroke="#101925" stroke-width="3"/>
<path d="M103 129H64V125.849L71.9918 117.973L76.1475 121.753L91.8115 106L103 117.973V129Z" fill="#172A3F"/>
<path d="M92 95H114" stroke="#172A3F" stroke-width="2"/>
<path d="M100 104L114 104" stroke="#172A3F" stroke-width="2"/>
<path d="M106 112L114 112" stroke="#172A3F" stroke-width="2"/>
<ellipse cx="70.5" cy="103" rx="6.5" ry="6" fill="#172A3F"/>
<rect x="0.5" y="0.5" width="193" height="209" rx="15.5" stroke="#506877"/>
</svg>
