<svg width="194" height="210" viewBox="0 0 194 210" fill="none" xmlns="http://www.w3.org/2000/svg">
<rect x="0.5" y="0.5" width="193" height="209" rx="15.5" fill="#101925"/>
<path d="M130.08 69H70.88L62 140H124.16L130.08 69Z" fill="#314157"/>
<path d="M136 140L131.5 86L127 140H136Z" fill="#4B5D74"/>
<path d="M131 65H67.4397L58 140" stroke="#314157"/>
<path d="M53 147H141" stroke="#43546C" stroke-width="2"/>
<path d="M121 80H78.3913L72 131H116.739L121 80Z" fill="#7B93B1" stroke="#101925" stroke-width="2"/>
<circle cx="9.78151" cy="9.78151" r="9.78151" transform="matrix(0.997859 -0.0654031 0 1 87.1973 90.7722)" fill="#172A3F"/>
<path d="M113.111 130C113.096 128.147 112.817 126.323 112.281 124.588C111.562 122.257 110.393 120.132 108.841 118.335C107.289 116.538 105.385 115.104 103.239 114.115C101.092 113.127 98.7453 112.604 96.3331 112.576C93.9209 112.548 91.4908 113.016 89.1823 113.952C86.8739 114.889 84.7327 116.276 82.8818 118.034C81.0309 119.791 79.5066 121.885 78.3967 124.195C77.5075 126.045 76.8983 128.004 76.5889 130C81 130 110.5 130 113.111 130Z" fill="#172A3F"/>
<rect x="0.5" y="0.5" width="193" height="209" rx="15.5" stroke="#506877"/>
</svg>
