<svg width="194" height="210" viewBox="0 0 194 210" fill="none" xmlns="http://www.w3.org/2000/svg">
<rect x="0.5" y="0.5" width="193" height="209" rx="15.5" fill="#101925"/>
<g clip-path="url(#clip0_1323_607)">
<path fill-rule="evenodd" clip-rule="evenodd" d="M82.8453 78.8143C62.7833 91.763 61.9292 122.052 79.3887 136.414C97.9936 151.718 130.332 142.983 137 118.15C127.816 129.755 102.704 139.515 87.818 126.813C73.2327 114.367 74.7223 92.2523 82.8453 78.8143ZM85.7467 91.0237C93.7544 83.6168 106.282 82.5083 115.464 88.3552L122.569 79.3067C108.655 69.8286 89.7572 72.6426 85.7467 91.0237ZM118.875 90.9775L125.974 81.938C127.506 83.2766 128.93 84.75 130.225 86.3464L121.301 93.5578C120.552 92.6357 119.741 91.774 118.875 90.9775Z" fill="#314157"/>
<path d="M94.3077 116C98.339 116 101.615 112.533 101.615 108.5C101.615 104.467 98.339 101 94.3077 101C90.2764 101 87 104.467 87 108.5C87 112.533 90.2764 116 94.3077 116Z" fill="#8B9DB6"/>
<path d="M94.3077 116C90.2764 116 87 112.533 87 108.5C87 104.467 90.2764 101 94.3077 101C98.339 101 101.615 104.467 101.615 108.5C101.615 112.533 98.339 116 94.3077 116Z" fill="#8B9DB6"/>
<path d="M117.692 116C121.724 116 125 112.533 125 108.5C125 104.467 121.724 101 117.692 101C113.661 101 110.385 104.467 110.385 108.5C110.385 112.533 113.661 116 117.692 116Z" fill="#8B9DB6"/>
<path d="M117.692 116C113.661 116 110.385 112.533 110.385 108.5C110.385 104.467 113.661 101 117.692 101C121.724 101 125 104.467 125 108.5C125 112.533 121.724 116 117.692 116Z" fill="#8B9DB6"/>
<path fill-rule="evenodd" clip-rule="evenodd" d="M87.4606 70.3307L99.5299 57.3147L69.4896 71.3833L47.9004 95.599L63.5466 88.0791L66.1377 98.2843C66.1377 98.2843 76.411 94.7698 85.9688 93.8376C88.8957 85.5121 95.9189 76.2009 95.9189 76.2009L87.4606 70.3307ZM76.9979 81.614L84.7458 73.2584L78.0054 83.5341L66.8708 86.4814L76.9979 81.614Z" fill="#7B93B1"/>
<path d="M87.4606 70.3307L99.5299 57.3147L69.4896 71.3833L47.9004 95.599L63.5466 88.0791M87.4606 70.3307L95.9189 76.2009C95.9189 76.2009 88.8957 85.5121 85.9688 93.8376C76.411 94.7698 66.1377 98.2843 66.1377 98.2843L63.5466 88.0791M87.4606 70.3307L84.7458 73.2584M63.5466 88.0791L66.8708 86.4814M84.7458 73.2584L76.9979 81.614L66.8708 86.4814M84.7458 73.2584L78.0054 83.5341L66.8708 86.4814" stroke="#101925" stroke-width="2.5"/>
<path fill-rule="evenodd" clip-rule="evenodd" d="M58.125 101.308L58.125 87L58.875 87V101.308H58.125Z" fill="#7B93B1"/>
<path d="M60 102.641C60 103.519 59.3284 104.231 58.5 104.231C57.6716 104.231 57 103.519 57 102.641C57 101.763 57.6716 101.051 58.5 101.051C59.3284 101.051 60 101.763 60 102.641Z" fill="#7B93B1"/>
<path d="M57 109L57.8936 102.641H58.9787L60 109H57Z" fill="#7B93B1"/>
<path d="M67 148L137 148" stroke="#43546C" stroke-width="2"/>
</g>
<rect x="0.5" y="0.5" width="193" height="209" rx="15.5" stroke="#506877"/>
<defs>
<clipPath id="clip0_1323_607">
<rect width="88" height="88" fill="white" transform="translate(53 61)"/>
</clipPath>
</defs>
</svg>
