<svg width="194" height="210" viewBox="0 0 194 210" fill="none" xmlns="http://www.w3.org/2000/svg">
<rect x="0.5" y="0.5" width="193" height="209" rx="15.5" fill="#101925"/>
<path fill-rule="evenodd" clip-rule="evenodd" d="M119.622 117H74.3784L66 126H128L119.622 117ZM111.952 120H82.0484L80 123H114L111.952 120Z" fill="#314157"/>
<circle cx="97" cy="102" r="20" fill="#7B93B1"/>
<circle cx="97" cy="102" r="16" fill="#5D7492"/>
<path d="M86.856 108L91.014 94.59H94.866L99.024 108H95.64L93.966 101.304C93.606 99.972 93.264 98.37 92.904 97.002H92.832C92.508 98.406 92.148 99.972 91.806 101.304L90.132 108H86.856ZM89.682 104.922V102.438H96.162V104.922H89.682ZM100.431 108V94.59H103.653V108H100.431Z" fill="#182A3F"/>
<path d="M75 64.5422V61H53V64.5422H75Z" fill="#7B93B1"/>
<path d="M53 82V65.3012L53.2864 65.7118C55.6273 69.068 56.8824 73.0614 56.8824 77.1533V82H53Z" fill="#7B93B1"/>
<path d="M75 145.458V149H53V145.458H75Z" fill="#7B93B1"/>
<path d="M53 128V144.699L53.2864 144.288C55.6273 140.932 56.8824 136.939 56.8824 132.847V128H53Z" fill="#7B93B1"/>
<path d="M119 64.5422V61H141V64.5422H119Z" fill="#7B93B1"/>
<path d="M141 82V65.3012L140.714 65.7118C138.373 69.068 137.118 73.0614 137.118 77.1533V82H141Z" fill="#7B93B1"/>
<path d="M119 145.458V149H141V145.458H119Z" fill="#7B93B1"/>
<path d="M141 128V144.699L140.714 144.288C138.373 140.932 137.118 136.939 137.118 132.847V128H141Z" fill="#7B93B1"/>
<rect x="0.5" y="0.5" width="193" height="209" rx="15.5" stroke="#506877"/>
</svg>
